<?xml version="1.0" encoding="UTF-8" standalone="no"?>
<svg
   xmlns:dc="http://purl.org/dc/elements/1.1/"
   xmlns:cc="http://creativecommons.org/ns#"
   xmlns:rdf="http://www.w3.org/1999/02/22-rdf-syntax-ns#"
   xmlns:svg="http://www.w3.org/2000/svg"
   xmlns="http://www.w3.org/2000/svg"
   xmlns:sodipodi="http://sodipodi.sourceforge.net/DTD/sodipodi-0.dtd"
   xmlns:inkscape="http://www.inkscape.org/namespaces/inkscape"
   viewBox="10 0 82 26"
   id="svg3336"
   version="1.1"
   inkscape:version="0.91 r13725"
   sodipodi:docname="sb-online.svg">
  <metadata
     id="metadata3352">
    <rdf:RDF>
      <cc:Work
         rdf:about="">
        <dc:format>image/svg+xml</dc:format>
        <dc:type
           rdf:resource="http://purl.org/dc/dcmitype/StillImage" />
        <dc:title></dc:title>
      </cc:Work>
    </rdf:RDF>
  </metadata>
  <defs
     id="defs3350">
    <style
       id="style3422"
       type="text/css"><![CDATA[
    .fil2 {fill:#36A348}
    .fil0 {fill:#36A348;fill-rule:nonzero}
    .fil1 {fill:#FAA94D;fill-rule:nonzero}
   ]]></style>
  </defs>
  <sodipodi:namedview
     pagecolor="#ffffff"
     bordercolor="#666666"
     borderopacity="1"
     objecttolerance="10"
     gridtolerance="10"
     guidetolerance="10"
     inkscape:pageopacity="0"
     inkscape:pageshadow="2"
     inkscape:window-width="1920"
     inkscape:window-height="1027"
     id="namedview3348"
     showgrid="false"
     inkscape:zoom="6.2402173"
     inkscape:cx="72.952836"
     inkscape:cy="26.135875"
     inkscape:window-x="-8"
     inkscape:window-y="-8"
     inkscape:window-maximized="1"
     inkscape:current-layer="svg3336" />
  <g
     id="g3455"
     transform="translate(0.96150497,0.16025083)">
    <g
       transform="matrix(0.00650934,0,0,0.00650934,10.238538,2.3250769)"
       id="g3444"
       style="clip-rule:evenodd;fill-rule:evenodd;image-rendering:optimizeQuality;shape-rendering:geometricPrecision;text-rendering:geometricPrecision">
      <g
         id="Слой_x0020_1">
        <metadata
           id="CorelCorpID_0Corel-Layer" />
        <g
           id="_2453570079392">
          <path
             style="fill:#36a348;fill-rule:nonzero"
             inkscape:connector-curvature="0"
             class="fil0"
             d="m 5003,1411 c 183,0 281,-26 346,-51 l -41,-138 c -72,20 -163,36 -275,36 -261,0 -468,-140 -468,-461 0,-314 198,-442 435,-441 155,0 229,27 296,47 l 48,-138 c -45,-20 -146,-62 -348,-62 -397,0 -614,228 -614,611 0,361 220,597 621,597 z m 885,-1 c 250,0 440,-145 440,-470 0,-276 -140,-384 -358,-384 -128,0 -231,40 -308,82 8,-80 30,-187 78,-233 57,-54 280,-94 533,-137 l -29,-156 c -284,53 -529,111 -619,198 -104,98 -139,391 -139,577 0,366 153,523 402,523 z m 14,-140 c -167,0 -248,-127 -248,-398 0,-30 0,-73 1,-103 82,-42 167,-78 272,-78 163,0 226,111 226,256 0,157 -55,323 -251,323 z m 1040,145 c 138,0 252,-27 302,-44 l -28,-138 c -56,14 -170,37 -234,37 -177,0 -310,-40 -313,-288 l 597,0 0,-62 c 0,-294 -105,-457 -348,-457 -241,0 -424,125 -424,492 0,353 175,460 448,460 z M 6672,861 c 13,-178 102,-272 226,-272 128,0 188,110 187,272 l -413,0 z m 810,900 173,0 0,-361 c 42,5 95,13 163,13 238,0 458,-125 458,-504 0,-295 -138,-444 -378,-444 -93,0 -189,53 -243,93 l 0,-72 -173,0 0,1275 z m 343,-488 c -90,0 -133,-11 -170,-16 l 0,-576 c 30,-17 122,-68 198,-68 195,0 247,139 247,322 0,193 -94,338 -275,338 z m 1032,137 c 249,0 439,-145 439,-470 0,-276 -140,-384 -358,-384 -128,0 -231,40 -308,82 9,-80 30,-187 79,-233 56,-54 279,-94 532,-137 l -28,-156 c -285,53 -529,111 -619,198 -105,98 -140,391 -140,577 0,366 153,523 403,523 z m 13,-140 c -166,0 -248,-127 -248,-398 0,-30 0,-73 2,-103 81,-42 166,-78 271,-78 163,0 226,111 226,256 0,157 -55,323 -251,323 z m 852,138 c 156,0 250,-78 300,-113 15,80 109,110 194,110 14,0 25,0 37,-2 l 8,-135 c -43,-3 -83,-15 -83,-71 l 0,-476 c 0,-187 -120,-256 -344,-256 -139,0 -255,35 -313,59 l 35,132 c 53,-13 153,-42 239,-42 147,0 213,27 213,153 l 0,102 -199,3 c -159,2 -362,50 -362,275 0,171 102,261 275,261 z m 42,-138 c -87,0 -147,-35 -147,-138 0,-83 72,-140 197,-143 l 194,-9 0,210 c -35,15 -148,80 -244,80 z m 735,125 173,0 0,-386 429,0 0,386 173,0 0,-909 -173,0 0,385 -429,0 0,-385 -173,0 0,909 z m 1800,15 29,-130 c -73,-20 -145,-73 -225,-165 l -175,-200 365,-429 -198,0 -355,443 253,309 c 120,147 220,167 306,172 z m -738,-15 173,0 0,-909 -173,0 0,909 z"
             id="path3427" />
          <path
             style="fill:#faa94d;fill-rule:nonzero"
             inkscape:connector-curvature="0"
             class="fil1"
             d="m 5008,3118 c 389,0 615,-237 615,-608 0,-353 -191,-605 -584,-605 -372,0 -617,221 -617,602 0,364 206,611 586,611 z m 5,-147 c -280,0 -411,-215 -411,-466 0,-258 136,-456 422,-456 275,0 418,198 418,460 0,261 -131,462 -429,462 z m 840,127 173,0 0,-386 429,0 0,386 173,0 0,-909 -173,0 0,384 -429,0 0,-384 -173,0 0,909 z m 975,28 c 117,-33 198,-90 250,-180 61,-111 91,-304 116,-621 l 260,0 0,773 173,0 0,-909 -584,0 c -10,313 -44,564 -93,657 -40,74 -112,110 -173,133 l 51,147 z m 1285,-15 c 156,0 249,-78 299,-113 15,80 110,110 195,110 13,0 25,0 36,-2 l 9,-135 c -44,-3 -83,-15 -83,-71 l 0,-476 c 0,-187 -120,-257 -345,-257 -138,0 -254,35 -313,60 l 35,132 c 53,-14 153,-42 240,-42 146,0 213,27 213,153 l 0,102 -200,3 c -158,2 -361,50 -361,275 0,171 102,261 275,261 z m 41,-138 c -86,0 -146,-35 -146,-138 0,-84 71,-140 196,-143 l 195,-9 0,210 c -35,15 -148,80 -245,80 z m 1140,-929 c 122,0 230,-63 293,-166 l -82,-92 c -68,79 -139,107 -211,107 -70,0 -143,-28 -211,-107 l -82,92 c 63,103 173,166 293,166 z m -404,1054 173,0 387,-551 79,-127 -4,125 0,553 173,0 0,-909 -173,0 -387,554 -79,123 4,-121 0,-556 -173,0 0,909 z m 1095,0 173,0 0,-386 429,0 0,386 173,0 0,-909 -173,0 0,384 -429,0 0,-384 -173,0 0,909 z"
             id="path3429" />
          <path
             style="fill:#36a348"
             inkscape:connector-curvature="0"
             class="fil2"
             d="m 1724,3316 c 952,0 1723,-772 1723,-1723 0,-284 -68,-551 -189,-787 L 3060,924 1037,2129 3,1485 c -2,36 -3,71 -3,108 0,951 772,1723 1724,1723 z"
             id="path3431" />
          <path
             style="fill:#36a348"
             inkscape:connector-curvature="0"
             class="fil2"
             d="M 1037,1911 3044,715 3163,645 C 3129,592 3091,542 3051,493 L 1037,1694 73,1093 c -18,62 -33,125 -45,189 l 1009,629 z"
             id="path3433" />
          <path
             style="fill:#36a348"
             inkscape:connector-curvature="0"
             class="fil2"
             d="M 1037,1466 2915,347 c -48,-46 -98,-88 -150,-128 L 1037,1248 224,742 c -30,53 -58,109 -83,166 l 896,558 z"
             id="path3435" />
          <path
             style="fill:#36a348"
             inkscape:connector-curvature="0"
             class="fil2"
             d="M 1037,1020 2584,99 C 2520,62 2453,29 2384,0 L 1037,803 447,435 c -42,46 -81,94 -118,144 l 708,441 z"
             id="path3437" />
        </g>
      </g>
    </g>
  </g>
</svg>
