<svg xmlns="http://www.w3.org/2000/svg" viewBox="0 0 624 138.2"><defs><style>.cls-1{fill:#7f5152;}</style></defs><g id="Layer_2" data-name="Layer 2"><g id="Logo"><g id="inline"><path class="cls-1" d="M79.5 138.2s-1.1-18.8-7.7-33.7c-8-18.6-18-49.1-3.5-76.6 3.5-6.8-1.2-7.7-7.2-.5-8.4 10.2-12.4 26.5-12.4 43.3s10.7 37.6 1.7 67.5z"/><path class="cls-1" d="M80 66.2a29.6 29.6 0 0 0-8.5 24.6 3.7 3.7 0 0 0 3.2 3.2 29.7 29.7 0 0 0 33-33.1 3.7 3.7 0 0 0-3.1-3.2A29.6 29.6 0 0 0 80 66.2zM68.6 41.2A21.3 21.3 0 0 0 67.2 59a3.7 3.7 0 0 0 4.2 2.4A21.3 21.3 0 0 0 87.2 33a3.7 3.7 0 0 0-4.2-2.4 21.3 21.3 0 0 0-14.4 10.5zM25.6 58.2A21.3 21.3 0 0 0 37 71.7a3.7 3.7 0 0 0 4.7-1.3 21.3 21.3 0 0 0-8.8-31 3.7 3.7 0 0 0-4.7 1.2 21.3 21.3 0 0 0-2.7 17.6zM42.3 82.8a29.6 29.6 0 0 0-24.6-8.5 3.7 3.7 0 0 0-3.2 3.2 29.7 29.7 0 0 0 33 33.1 3.7 3.7 0 0 0 3.3-3.2 29.6 29.6 0 0 0-8.5-24.6zM14.8 54a15.7 15.7 0 0 0-11.9-2 3.7 3.7 0 0 0-2.8 4.4 15.8 15.8 0 0 0 18.7 12 3.7 3.7 0 0 0 2.9-4.4 15.7 15.7 0 0 0-6.9-10zM52.4 23.6a15.7 15.7 0 0 0-6.9-10 3.7 3.7 0 0 0-5.1 1.2A15.8 15.8 0 0 0 45 36.6a3.7 3.7 0 0 0 5.2-1.1 15.7 15.7 0 0 0 2.1-11.9zM83.5 14.8a15.7 15.7 0 0 0 2.2-11.9A3.7 3.7 0 0 0 81.2.1a15.8 15.8 0 0 0-12 18.7 3.7 3.7 0 0 0 4.4 2.9 15.7 15.7 0 0 0 10-6.9zM133.7 94.5a43.2 43.2 0 0 1 1.5-11 29.7 29.7 0 0 1 4.6-10 23.5 23.5 0 0 1 8.1-7 25.5 25.5 0 0 1 12.2-2.6 36.1 36.1 0 0 1 6.4.5 24.3 24.3 0 0 1 7 2.6l2-3.1h4.2l.1 18.7-4.2.6-3.8-8.2a13.3 13.3 0 0 0-5-2.2 27.7 27.7 0 0 0-5.2-.5 12.7 12.7 0 0 0-6.7 1.7 12.9 12.9 0 0 0-4.5 4.6 22.2 22.2 0 0 0-2.5 6.8 41.4 41.4 0 0 0-.8 8.3 48.8 48.8 0 0 0 .6 8 18.5 18.5 0 0 0 2.4 6.7 12.4 12.4 0 0 0 4.9 4.6 17.6 17.6 0 0 0 8.2 1.7q2.7 0 6.8-.5a45 45 0 0 0 8.8-1.8l1.9 7.2a27.4 27.4 0 0 1-4.9 2 46.8 46.8 0 0 1-5.3 1.3l-5.3.8q-2.5.3-4.5.2-13.4 0-20.2-7.1t-6.8-22.3zM223.4 104.8h-18.7l-3.7 11 7.3 1.6-.2 5.3h-22l-.3-5.1 6.9-2 15.1-39 2-5.5q1-2.7 1.8-5.6l9.7-2 .6.3 20.5 52 4.8 1.5-.5 5.4h-25.5l-.4-5.1 6.3-2zM210 89l-3.2 9.5h14.4l-3.2-9.7-3.8-11.4h-.3zM274.4 63.8l2.7.2 3.4.4 3.8.8a29.1 29.1 0 0 1 3.8 1.2l1.6-2.6h3.6l.2 19-4.3.5-3.4-8.8a19.3 19.3 0 0 0-5-1.8 26.8 26.8 0 0 0-5.7-.7 10.7 10.7 0 0 0-5.7 1.4 4.6 4.6 0 0 0-2.1 4.2 4.1 4.1 0 0 0 1.2 2.8 15.3 15.3 0 0 0 3.3 2.6 55 55 0 0 0 5 2.7l6 2.9a52.9 52.9 0 0 1 5.5 2.9A22.5 22.5 0 0 1 293 95a14.6 14.6 0 0 1 3 4.6 15.7 15.7 0 0 1 1.1 6.1 19.4 19.4 0 0 1-1.2 6.7 15.4 15.4 0 0 1-4 6 20 20 0 0 1-7 4.1 32.5 32.5 0 0 1-11 1.6l-3.4-.2-4-.4-4-.8a19.4 19.4 0 0 1-3.5-1.1l-1.7 2.4h-4l-.2-21.2 4.2-.6 3.3 9.8a13 13 0 0 0 3 1.7 29 29 0 0 0 3.5 1.1 26.4 26.4 0 0 0 3.4.7 24.4 24.4 0 0 0 3 .2 16.3 16.3 0 0 0 4.9-.6 9 9 0 0 0 3.1-1.7 5.8 5.8 0 0 0 1.7-2.3 7.5 7.5 0 0 0 .5-2.7q0-3.6-3.6-6a53.6 53.6 0 0 0-9.1-5q-3.7-1.5-6.8-3.2a29.6 29.6 0 0 1-5.4-3.8 15.8 15.8 0 0 1-3.6-4.5 12.4 12.4 0 0 1-1.3-5.8A16 16 0 0 1 255 74a14 14 0 0 1 3.6-5.2 18.4 18.4 0 0 1 6.4-3.6 28 28 0 0 1 9.4-1.4zM351 105.8l-2.1 16-1 1h-5.6l-5.4-.2H308.1q-3 0-5.5.2l-.6-4.8 7.6-2.3V72.2l-6.8-2 .6-5.1 5.1.1 6.2.1H335.5l5.1-.1 5.6-.2.9.5.2 16-4.1.9-4-9.5H322.3v16.8l18.5-.7v7.9l-18.5-.7v18.6h19.2l5.7-9.8zM400.1 91.2l-6 16.5-5.5 15.1-9 1.4-19.9-52-5.4-2 .7-5h18.2a31 31 0 0 0 .7 4.6l1.2 4.5 5.2 16 6.4 19.6h.3l6.1-18.6 3.2-9.6-3.7-9.6-5.6-1.8.7-5 18.7-.2a34.9 34.9 0 0 0 .7 4.7 33.6 33.6 0 0 0 1.2 4.5l6 17.6 5.5 17.3h.3l5-17.2 5.2-19.1-8.9-2.7.4-5h22.4l.5 5a14.9 14.9 0 0 0-3.7 3 20.4 20.4 0 0 0-2.7 3.5 28.7 28.7 0 0 0-2 3.9q-.9 2-1.4 3.9l-12.5 38.3-9.1 1.4-6.5-16.7-6.2-16.3zM500.7 93.3a45.7 45.7 0 0 1-1.4 11.4 27.4 27.4 0 0 1-4.7 9.8 23.6 23.6 0 0 1-8.3 6.9 27.8 27.8 0 0 1-12.6 2.6q-13.7 0-20.3-7.7T447 94.8a45.9 45.9 0 0 1 1.4-11.4 27.8 27.8 0 0 1 4.7-9.9 23.6 23.6 0 0 1 8.4-7 28.5 28.5 0 0 1 13-2.6 29.2 29.2 0 0 1 11.4 2.1 22 22 0 0 1 8.2 6 25.6 25.6 0 0 1 5 9.2 41.1 41.1 0 0 1 1.7 12.2zm-26.9-21.5a11.3 11.3 0 0 0-6.9 2 13.4 13.4 0 0 0-4.1 5.1 24.5 24.5 0 0 0-2 7 53 53 0 0 0-.6 7.5 56.6 56.6 0 0 0 .7 9 22.8 22.8 0 0 0 2.2 7 11.3 11.3 0 0 0 4.2 4.6 12.5 12.5 0 0 0 6.6 1.6 11.3 11.3 0 0 0 6.7-1.9 13.8 13.8 0 0 0 4.2-5 22.8 22.8 0 0 0 2.2-6.8 47 47 0 0 0 .7-7.6 51.2 51.2 0 0 0-.7-8.3 24.8 24.8 0 0 0-2.3-7.2 14 14 0 0 0-4.2-5 11 11 0 0 0-6.6-2zM562.9 93.3a45.8 45.8 0 0 1-1.4 11.4 27.4 27.4 0 0 1-4.7 9.8 23.6 23.6 0 0 1-8.3 6.9 27.8 27.8 0 0 1-12.6 2.6q-13.7 0-20.2-7.7T509 94.8a45.9 45.9 0 0 1 1.4-11.4 27.8 27.8 0 0 1 4.7-9.9 23.6 23.6 0 0 1 8.4-7 28.5 28.5 0 0 1 13-2.6A29.2 29.2 0 0 1 548 66a22 22 0 0 1 8.2 6 25.6 25.6 0 0 1 5 9.2 41.2 41.2 0 0 1 1.7 12.2zM536 71.8a11.3 11.3 0 0 0-6.9 2 13.4 13.4 0 0 0-4.1 5.1 24.5 24.5 0 0 0-2 7 53 53 0 0 0-.5 7.5 56.8 56.8 0 0 0 .6 9 22.9 22.9 0 0 0 2.2 7 11.3 11.3 0 0 0 4.2 4.6 12.5 12.5 0 0 0 6.6 1.6 11.3 11.3 0 0 0 6.7-1.9 13.7 13.7 0 0 0 4.3-5 22.8 22.8 0 0 0 2.2-6.8 47 47 0 0 0 .6-7.6 51 51 0 0 0-.7-8.3 24.8 24.8 0 0 0-2.2-7.2 14 14 0 0 0-4.2-5 11 11 0 0 0-6.7-2zM583.8 122.5h-11l-4.2.2-.6-4.7 7.4-2.3V72.2l-6.6-2 .5-5.1 3.8.1 2.9.1h9.9l3.5-.1 3-.1h3a32.9 32.9 0 0 1 13.6 2.4 23.9 23.9 0 0 1 8.8 6.6 25 25 0 0 1 4.7 9.1 38.2 38.2 0 0 1 1.5 10.3 43.7 43.7 0 0 1-.4 5.8 36 36 0 0 1-1.5 6.3 28.7 28.7 0 0 1-3 6.3 21.3 21.3 0 0 1-5 5.5 24.3 24.3 0 0 1-7.2 3.9 31 31 0 0 1-10 1.4h-6.4l-4-.1zm4.4-8a20.1 20.1 0 0 0 3.2.5l3.3.1a15 15 0 0 0 7.6-1.8 14 14 0 0 0 5-4.8 22 22 0 0 0 2.7-7 40 40 0 0 0 .9-8.3 28.5 28.5 0 0 0-1.5-10 15.7 15.7 0 0 0-4-6.2 13.8 13.8 0 0 0-5.8-3.1 26.9 26.9 0 0 0-7-.9h-2.4l-2 .1z"/></g></g></g></svg>