<svg xmlns="http://www.w3.org/2000/svg" viewBox="0 0 624 138.2">
    <defs>
        <style>.cls-1{fill:#7f5152;}</style>
    </defs>
    <title>Asset 2</title>
    <g id="Layer_2" data-name="Layer 2">
        <g id="Logo">
            <g id="inline">
                <path class="cls-1"
                      d="M79.55,138.2s-1.19-18.79-7.72-33.73c-8.12-18.55-18.11-49.08-3.56-76.61,3.56-6.75-1.19-7.71-7.13-.48-8.42,10.25-12.47,26.5-12.47,43.37s10.69,37.58,1.78,67.46Z"/>
                <path class="cls-1"
                      d="M80,66.17a29.64,29.64,0,0,0-8.47,24.59A3.69,3.69,0,0,0,74.72,94,29.68,29.68,0,0,0,107.78,60.9a3.69,3.69,0,0,0-3.21-3.21A29.64,29.64,0,0,0,80,66.17Z"/>
                <path class="cls-1"
                      d="M68.63,41.22a21.28,21.28,0,0,0-1.42,17.7,3.71,3.71,0,0,0,4.24,2.37A21.32,21.32,0,0,0,87.19,33.1,3.71,3.71,0,0,0,83,30.73,21.28,21.28,0,0,0,68.63,41.22Z"/>
                <path class="cls-1"
                      d="M25.58,58.18A21.28,21.28,0,0,0,37.09,71.7a3.71,3.71,0,0,0,4.67-1.32A21.32,21.32,0,0,0,33,39.32a3.71,3.71,0,0,0-4.67,1.32A21.28,21.28,0,0,0,25.58,58.18Z"/>
                <path class="cls-1"
                      d="M42.28,82.8a29.64,29.64,0,0,0-24.59-8.47,3.69,3.69,0,0,0-3.21,3.21A29.68,29.68,0,0,0,47.55,110.6a3.69,3.69,0,0,0,3.21-3.21A29.64,29.64,0,0,0,42.28,82.8Z"/>
                <path class="cls-1"
                      d="M14.8,54.09A15.7,15.7,0,0,0,2.94,51.95,3.72,3.72,0,0,0,.09,56.38,15.75,15.75,0,0,0,18.83,68.43,3.72,3.72,0,0,0,21.68,64,15.7,15.7,0,0,0,14.8,54.09Z"/>
                <path class="cls-1"
                      d="M52.42,23.6a15.7,15.7,0,0,0-6.88-9.91,3.72,3.72,0,0,0-5.15,1.12,15.75,15.75,0,0,0,4.73,21.77,3.72,3.72,0,0,0,5.15-1.12A15.7,15.7,0,0,0,52.42,23.6Z"/>
                <path class="cls-1"
                      d="M83.51,14.8A15.7,15.7,0,0,0,85.66,2.94,3.72,3.72,0,0,0,81.22.09,15.75,15.75,0,0,0,69.17,18.83a3.72,3.72,0,0,0,4.43,2.85A15.7,15.7,0,0,0,83.51,14.8Z"/>
                <path class="cls-1"
                      d="M133.71,94.53a43.2,43.2,0,0,1,1.46-11.12,29.71,29.71,0,0,1,4.6-9.87,23.53,23.53,0,0,1,8.16-7,25.47,25.47,0,0,1,12.13-2.68,36.15,36.15,0,0,1,6.48.59,24.28,24.28,0,0,1,7,2.59l1.92-3.18h4.27l.08,18.73-4.18.58L171.85,75a13.27,13.27,0,0,0-5-2.18,27.68,27.68,0,0,0-5.27-.5A12.69,12.69,0,0,0,154.87,74a12.89,12.89,0,0,0-4.47,4.6,22.17,22.17,0,0,0-2.51,6.82,41.41,41.41,0,0,0-.79,8.32,48.83,48.83,0,0,0,.63,8,18.5,18.5,0,0,0,2.38,6.65A12.38,12.38,0,0,0,155,113a17.55,17.55,0,0,0,8.2,1.67q2.68,0,6.82-.42a44.92,44.92,0,0,0,8.74-1.84l1.92,7.19a27.43,27.43,0,0,1-4.85,2,46.84,46.84,0,0,1-5.35,1.34q-2.68.5-5.23.75t-4.56.25q-13.38,0-20.2-7.15T133.71,94.53Z"/>
                <path class="cls-1"
                      d="M223.38,104.82H204.72l-3.68,11,7.28,1.59-.17,5.27h-22l-.33-5.1,6.86-1.92,15.14-39.14q1.09-2.68,2-5.44t1.8-5.6l9.7-1.92.59.25,20.49,51.94,4.77,1.59-.5,5.35H221.2l-.42-5.1,6.36-2ZM210,88.93l-3.18,9.45H221.2L218,88.68,214.18,77.3h-.33Z"/>
                <path class="cls-1"
                      d="M274.37,63.84q1.09,0,2.72.13t3.43.42q1.8.29,3.76.79a29.11,29.11,0,0,1,3.81,1.25l1.59-2.59h3.6l.17,18.9-4.27.59-3.35-8.87a19.3,19.3,0,0,0-5.1-1.8,26.76,26.76,0,0,0-5.6-.63,10.74,10.74,0,0,0-5.69,1.34,4.64,4.64,0,0,0-2.17,4.27,4.1,4.1,0,0,0,1.21,2.76,15.34,15.34,0,0,0,3.3,2.63,55,55,0,0,0,4.93,2.68q2.84,1.38,6,2.88a52.86,52.86,0,0,1,5.6,2.88A22.53,22.53,0,0,1,292.89,95a14.62,14.62,0,0,1,3.05,4.6,15.74,15.74,0,0,1,1.09,6.11,19.42,19.42,0,0,1-1.21,6.73,15.43,15.43,0,0,1-3.93,5.9,19.93,19.93,0,0,1-7.15,4.18,32.45,32.45,0,0,1-10.87,1.59q-1.51,0-3.47-.17t-4-.46q-2-.29-4-.75a19.45,19.45,0,0,1-3.47-1.13l-1.76,2.42h-3.93L253,102.81l4.18-.58,3.35,9.79a13.07,13.07,0,0,0,3,1.67,28.93,28.93,0,0,0,3.43,1.13,26.39,26.39,0,0,0,3.43.67,24.42,24.42,0,0,0,3,.21,16.31,16.31,0,0,0,4.89-.63,9,9,0,0,0,3.14-1.63,5.75,5.75,0,0,0,1.67-2.3,7.47,7.47,0,0,0,.5-2.72q0-3.6-3.55-6.06a53.61,53.61,0,0,0-9.16-4.89q-3.68-1.59-6.77-3.3a29.56,29.56,0,0,1-5.39-3.76,15.79,15.79,0,0,1-3.6-4.56,12.39,12.39,0,0,1-1.3-5.77A16.09,16.09,0,0,1,255,74a14.06,14.06,0,0,1,3.64-5.18A18.37,18.37,0,0,1,265,65.22,28,28,0,0,1,274.37,63.84Z"/>
                <path class="cls-1"
                      d="M351.07,105.82l-2.18,16.06-.92.84q-3,0-5.69,0l-5.35-.08-5.56-.08q-2.89,0-6.32,0h-5q-2.86,0-5.93,0l-6.09.08q-3,0-5.44.13L302,118l7.61-2.26V72.2l-6.77-2,.58-5.1q2.09.08,5.11.13l6.13.08q3.12,0,5.85,0h4.41q2.84,0,5.44,0l5.14-.08,5.14-.08q2.59,0,5.52-.13l.92.5.17,16-4.1.84-4-9.45h-3.47q-2.3,0-4.85,0t-4.89,0h-3.6V89.68L340.78,89v7.86L322.3,96.2v18.65h4.14q2.63,0,5.48,0l5.48-.08q2.63,0,4.14,0l5.69-9.79Z"/>
                <path class="cls-1"
                      d="M400.14,91.19l-6,16.56-5.52,15.06-9,1.42L359.74,72.12l-5.44-1.84.67-5,18.23-.17a31,31,0,0,0,.71,4.72q.54,2.38,1.21,4.48l5.18,16.06,6.36,19.49H387l6.11-18.57,3.18-9.62-3.68-9.53L387,70.28l.67-5,18.73-.17a34.88,34.88,0,0,0,.67,4.72,33.6,33.6,0,0,0,1.25,4.48l5.94,17.56,5.52,17.31h.33l5-17.15,5.18-19.15-8.87-2.68.33-4.93,22.5-.08.42,5.1A14.87,14.87,0,0,0,441,73.12a20.37,20.37,0,0,0-2.72,3.55,28.71,28.71,0,0,0-2,3.93q-.84,2.05-1.42,3.89l-12.46,38.3-9.12,1.42-6.44-16.73-6.19-16.31Z"/>
                <path class="cls-1"
                      d="M500.7,93.28a45.71,45.71,0,0,1-1.42,11.46,27.43,27.43,0,0,1-4.64,9.79,23.59,23.59,0,0,1-8.36,6.86A27.77,27.77,0,0,1,473.68,124q-13.72,0-20.24-7.65T446.92,94.7a45.89,45.89,0,0,1,1.42-11.42A27.76,27.76,0,0,1,453,73.41a23.59,23.59,0,0,1,8.45-6.94,28.53,28.53,0,0,1,12.92-2.63,29.19,29.19,0,0,1,11.46,2.09A22,22,0,0,1,494,71.87a25.63,25.63,0,0,1,5,9.28A41.15,41.15,0,0,1,500.7,93.28Zm-26.85-21.5a11.27,11.27,0,0,0-6.94,2,13.37,13.37,0,0,0-4.14,5.14,24.53,24.53,0,0,0-2,7,53,53,0,0,0-.54,7.44,56.64,56.64,0,0,0,.67,9.12,22.83,22.83,0,0,0,2.22,7,11.29,11.29,0,0,0,4.18,4.52,12.52,12.52,0,0,0,6.57,1.59,11.32,11.32,0,0,0,6.73-1.88,13.77,13.77,0,0,0,4.22-4.93,22.82,22.82,0,0,0,2.22-6.86,47,47,0,0,0,.63-7.65A51.17,51.17,0,0,0,487,86a24.83,24.83,0,0,0-2.26-7.19,14,14,0,0,0-4.22-5.06A11,11,0,0,0,473.85,71.78Z"/>
                <path class="cls-1"
                      d="M562.9,93.28a45.77,45.77,0,0,1-1.42,11.46,27.41,27.41,0,0,1-4.64,9.79,23.58,23.58,0,0,1-8.36,6.86A27.77,27.77,0,0,1,535.89,124q-13.72,0-20.24-7.65T509.13,94.7a45.89,45.89,0,0,1,1.42-11.42,27.76,27.76,0,0,1,4.64-9.87,23.61,23.61,0,0,1,8.45-6.94,28.53,28.53,0,0,1,12.92-2.63A29.19,29.19,0,0,1,548,65.93a22,22,0,0,1,8.24,5.94,25.63,25.63,0,0,1,5,9.28A41.19,41.19,0,0,1,562.9,93.28Zm-26.85-21.5a11.27,11.27,0,0,0-6.94,2A13.38,13.38,0,0,0,525,78.93a24.49,24.49,0,0,0-2,7,53,53,0,0,0-.54,7.44,56.79,56.79,0,0,0,.67,9.12,22.86,22.86,0,0,0,2.22,7,11.3,11.3,0,0,0,4.18,4.52,12.52,12.52,0,0,0,6.57,1.59,11.31,11.31,0,0,0,6.73-1.88,13.74,13.74,0,0,0,4.22-4.93,22.78,22.78,0,0,0,2.22-6.86,47,47,0,0,0,.63-7.65,51,51,0,0,0-.67-8.32,24.75,24.75,0,0,0-2.26-7.19,13.94,13.94,0,0,0-4.22-5.06A11,11,0,0,0,536.06,71.78Z"/>
                <path class="cls-1"
                      d="M583.77,122.47h-3.93q-1.76,0-3.47,0l-3.6.08-4.22.13L568,118l7.44-2.26V72.2l-6.69-2,.59-5.1,3.72.13,2.93.08q1.38,0,2.72,0h3q2.34,0,4.22,0t3.43-.12q1.55-.08,3-.13t3,0A32.89,32.89,0,0,1,609,67.52a23.89,23.89,0,0,1,8.82,6.56,25,25,0,0,1,4.72,9.16A38.18,38.18,0,0,1,624,93.53a43.7,43.7,0,0,1-.42,5.73,36.07,36.07,0,0,1-1.46,6.36,28.7,28.7,0,0,1-3,6.31,21.33,21.33,0,0,1-4.93,5.48,24.31,24.31,0,0,1-7.28,3.85,31,31,0,0,1-10,1.46l-2.38,0-4-.08-4.06-.08Zm4.43-7.95a20.1,20.1,0,0,0,3.21.46q1.79.13,3.29.13a15.06,15.06,0,0,0,7.62-1.8,13.93,13.93,0,0,0,5-4.85,21.91,21.91,0,0,0,2.71-7,40,40,0,0,0,.83-8.24,28.52,28.52,0,0,0-1.5-10,15.71,15.71,0,0,0-4-6.19,13.82,13.82,0,0,0-5.79-3.14,26.87,26.87,0,0,0-7-.88q-1.17,0-2.33,0t-2.08.13Z"/>
            </g>
        </g>
    </g>
</svg>