<svg version="1" xmlns="http://www.w3.org/2000/svg" viewBox="0 0 465 465"><path d="M232 262a29 29 0 1 0 0 58 29 29 0 0 0 0-58zm0 50a21 21 0 1 1 0-42 21 21 0 0 1 0 42zM186 380c-3 0-4 2-4 4v12a4 4 0 0 0 8 0v-12c0-2-2-4-4-4zM209 380c-2 0-4 2-4 4v12a4 4 0 0 0 8 0v-12c0-2-2-4-4-4zM232 380c-2 0-4 2-4 4v12a4 4 0 0 0 8 0v-12c0-2-2-4-4-4zM255 380c-2 0-4 2-4 4v12a4 4 0 0 0 8 0v-12c0-2-1-4-4-4zM279 380c-3 0-4 2-4 4v12a4 4 0 0 0 8 0v-12c0-2-2-4-4-4zM219 16l6 2-4 6a4 4 0 0 0 7 5l4-5 4 5 3 1a4 4 0 0 0 3-6l-3-6 6-2a4 4 0 0 0-3-7l-6 1V4a4 4 0 0 0-8 0l-1 6-6-1a4 4 0 0 0-2 7z"/><path d="M398 360l-4 1-11 7-11-7a4 4 0 0 0-6 3v26h-16v-26a4 4 0 0 0-6-3l-11 7-11-7a4 4 0 0 0-6 3v26h-16v-59c0-2-2-4-4-4h-2v-19a4 4 0 0 0-8 0v19h-6v-75c0-2-2-4-4-4h-7v-92c0-2-2-4-4-4h-8L236 38a4 4 0 0 0-8 0l-22 114h-8c-2 0-4 2-4 4v92h-7c-2 0-4 2-4 4v75h-6v-19a4 4 0 0 0-8 0v19h-2c-2 0-4 2-4 4v59h-14v-26a4 4 0 0 0-6-3l-11 7-11-7a4 4 0 0 0-6 3v26H99v-26a4 4 0 0 0-7-3l-10 7-11-7a4 4 0 0 0-6 3v97c0 2 1 4 4 4h327c2 0 4-2 4-4v-97l-2-4zm-227-25h20v28a4 4 0 0 0 8 0v-28h28v28a4 4 0 0 0 8 0v-28h29v28a4 4 0 0 0 8 0v-28h20v85H171v-85zm90-120h-11v-55h11v55zm-19-55v55h-21v-55h21zM232 60l17 92h-35l18-92zm-19 100v55h-11v-55h11zm-11 63h59v25h-59v-25zm-11 33h81v71h-81v-71zM73 372l6 5h5l7-5v22c0 3 2 4 4 4h24c2 0 4-1 4-4v-22l7 5h4l7-5v22c0 3 2 4 4 4h18v59H73v-85zm98 85v-29h121v29H171zm221 0h-92v-59h20c2 0 4-1 4-4v-22l7 5h4l7-5v22c0 3 2 4 4 4h24c2 0 4-1 4-4v-22l7 5h4l7-5v85z"/><path d="M242 287h-6v-6a4 4 0 0 0-8 0v10c0 3 1 4 4 4h10a4 4 0 0 0 0-8z"/></svg>