<svg xmlns="http://www.w3.org/2000/svg" width="867" height="472" version="1"><path d="M743 470c3-2 3-2 1-9l-6-11c-2-3-2-4 0-7l3-4h5c3 0 4-6 2-10-1-1-1-3 1-4 2-3 1-3-3-13-2-3-2-4-1-6 2-2 2-2 0-4l-2-5-1-4c-2 0-6 6-5 8l-4 3c-2 1-4 3-4 5l-2 3-4 2c-3 3-7 2-10-4-2-3-4-5-7-5h-15c-1 2-6 0-11-3l-9-5c-3-1-3-1 0-2l3-1-3-4-4-6-2-1-5-4c-4-3-5-3-15-3l-18 3-5 5c-5 4-6 6-2 9 3 2 4 9 1 12l-1 11c-1 9-1 11-5 14l-4 5-6-3h-9c-2 2-3 2-7 0-3-2-4-2-9 1l-6 6c-1 3-2 4-6 5l-7 3c-1 2-3 3-4 2h-10c-7 0-9-1-11-3l-6-3c-2 1-4 0-5-2-2-3-12-3-18 0l-7 2c-3 0-11-8-11-11 0-2-7-7-11-7s-13-5-14-8c-1-2-1-2-1 1l-4 8c-4 4-5 11-2 14 1 1 0 2-2 5-3 3-5 4-9 3l-6-2-3-1c-2 1-6-3-7-7-1-2-2-2-6-2l-6-1c-1-2-3-1-9 1l-13 3c-3 0-4 0-3 2s-1 3-9 4l-6 2-5-3c-2-2-5-4-8-4-4-1-5-1-7-5 0-3-2-5-3-5s-2-2-2-5-1-4-5-6-6-2-7-1c-2 2-7 0-9-4-2-5-7-6-7-2l-2 2c-2 0-2-2-2-9l-2-17-2-9-3-4c-4-5-4-6 0-7 3-1 3-1-2-2h-8c-2 2-8 2-13 0-2-1-2-1 0-2 1-1 1-2-1-3l-5-3-1-2c1-1 0-2-3-2-4 0-5-3-3-5l2-6c0-4-1-5-3-5l-6-3c-2-2-3-3-7-2-5 2-18 0-33-5l-11-3-4-3c-2-1-3-2-4-1-2 1-3 9-1 11 1 2 1 2-1 0-4-3-9-1-9 3 0 3-4 4-7 1-1-1-2-1-1 4 2 13 2 13-1 14l-5-4c-2-2-4-3-5-2-3 0-5-3-6-7 0-2-1-4-3-4l-5-4-4-2h-6c-2-1-3-2-3-5 0-5-3-7-5-3-1 2-1 1-1-5 1-5 0-7-2-8-1-1-3-2-2-3 0-5-1-6-4-5-2 0-3-1-4-3 0-3-1-3-6-3h-6l-6-1c-5 0-6 1-6 3l-3 4c-2 1-4-2-3-5 1-4-1-6-7-5-5 1-7 2-7 4-1 4-7 6-7 3l-2 2c-2 3-2 4-1 5 1 2 1 3-1 4s-2 2 1 5c2 2 3 4 2 6v5c0 1-1 2-3 2s-2 5 0 6c4 3-6 3-11 1-6-2-7-2-10-1l-5 2c-5 0-6 1-6 5l-2 6c-1 2-1 3 1 4h4l1 1c0 1-2 2-6 2-6 0-6-1-8 13-1 5-2 6-4 6-6 0-8-3-8-10l-2-7-1-5c1-10 0-12-4-15-4-2-5-3-5-9l-3-8c-2-1-6-8-6-12l-2-4c-3-2-3-5-4-20l-1-18 4 4c3 3 3 3 6 1h6c3 2 3 2 3-1l1-5h2c0 2 7 5 9 5s1-4-1-5c-3-2-3-2-1-3 3-1 10 2 10 4s7 0 8-2 2-2 3-2c2 0 3-1 3-2l2-2c4-1 4-8 1-14-1-3-2-6-1-8 1-3 0-4-4-4-3-1-4-2-4-6l4-7c4-3 4-4 1-8-2-3-2-4 1-5l5-5c1-4 0-5-5-9l-5-5 4-4c5-5 6-6 7-2 0 2 2 3 5 3l4-1c-2-3 2-13 5-17l6-5c3 0 4-7 1-8v-4l-1-3c-2-2-2-6 1-6 1 0 3-1 3-3l4-4 2-1 3-3c3-2 3-2 2 0-1 3 2 3 4 0l9-6c8-3 11-3 14 3 3 5 5 3 4-3v-6c1 0 2-1 1-2h2c6 2 19 4 25 4s11-4 10-6c-2-3 1-7 4-8 2 0 3-1 3-2-1-1 1-2 2-2 2 0 3-1 3-3s6-6 10-6l4-4c4-5 7-7 11-7 5 0 7-2 8-7 1-4 2-5 6-6 4 0 6 0 9 2 2 2 5 3 5 2l3 2v3c-2 2-3 8-2 8l3 3c2 4 2 35 0 37l-7 4c-5 1-6 1-9-1-6-3-10-18-10-31 0-4-3-3-5 2l-2 10c0 2-2 4-4 4-5 2-10 7-10 12l-1 6-1 2 3 3c1 3 4 4 6 1l1-5c0-3 1-4 3-4 2-1 2 0 2 4 0 10 7 15 10 7 1-5 1-5 9-4 5 1 9 2 10 4l1 3c-3 0 0 3 3 3s6-3 7-7c0-1 2-3 4-3s4-2 6-4l5-3c3 1 3 2 1 7-1 3-2 4-3 3-4-3-8-1-9 4-1 6 2 9 7 8 10-2 21-1 25 2l4 2 4-2c3 0 3 0 0 3-2 2-2 3 0 5 1 2 3 2 5 2 2-1 4 0 5 2l7 2c4 0 5 0 4 3s0 3 2 3c5-1 7-2 7-5 0-6 4-5 10 1 5 5 7 10 6 11s0 2 2 4c2 1 3 5 4 7l2 4c3 0 6-4 5-7-1-2 0-4 1-5v-2c-3 0-2-4 1-9 2-2 3-5 3-7s1-3 3-3c1 0 6-3 9-7l8-6 4 1c5 2 5 7-1 13-3 4-4 6-3 9 0 3 0 5-2 6l-2 4-3 7c-2 4-3 8-2 10 1 3 0 4-2 5-1 0-2 1-1 3l-3 3-4 3-4 4c-5 2-5 2-7-1l-2-1-2-1h-2c0 4 2 6 7 8 4 2 5 2 11 0 9-4 15-10 15-15 0-4 2-6 6-5s6 7 3 10c-2 2-2 8 0 8l5 3 3 3-1-3-4-5c-2-2-2-2 0-5 2-1 3-4 3-6 0-3-6-10-9-10l-4-1c-2-2 0-9 4-13 3-3 3-5 3-8-1-5 1-9 5-9l4-2c3-3 3-3 1 0l-2 8c-1 4 0 5 3 6l4 3 2 1c3 0 1-4-3-7-3-2-3-6 0-6l2 2 3 1c1 0 2-1 1-3 0-2 0-3 2-2l2 1 2 1 3 4c0 2 2 4 4 4 4 1 5 3 1 4-2 1-3 2-3 5l1 3v2c-1 2-2 4-1 5l1 7c0 2 5 1 5 0l-2-2v-5l2-8 1-7v-5l-1-4c0-1-1-3-3-3-1-2-2-4-1-7l1-6h10c7 1 10 1 10 3h3c2-1 2-3 2-7s1-6 2-7c1 0 2-1 1-2-1-2 8-6 14-6 3 0 5-1 5-2 1-3 5-3 5-1 0 1 1 2 3 2 3 0 10-4 10-5l4-1c3 0 3-1 3-4-1-6 6-13 9-11 2 2 2 2 0 3v3l4 1 2 3c0 4 3 4 4 1s8-3 13 2c4 3 5 4 3 5-1 1-1 2 1 3 4 3 3 5-3 11l-5 7-6 8-7 9c0 1 1 1 2-1l5-2c2 0 4-2 4-3l3-3c1 1 3 0 4-1 3-3 8-3 9 0l2 2c1 0 2 0 1-1-1-2 6-6 10-6l6 2c3 3 10 3 16 0 3-2 4-3 2-5-2-4 0-6 5-5 2 1 4 0 6-1 1-2 2-2 6 0 2 2 4 4 3 6 0 1 0 2 2 2s2 2 0 3c-2 2 0 4 3 3 1 0 2 0 2 2s1 4 4 5c5 2 10 2 9 0l-1-7c0-4 0-5 2-4 3 2 8 1 8-3 0-3 2-4 7-2 4 2 8-1 4-3-2-2-1-2 1-3 3 0 3-1 2-4l-3-5v-4l1-3c-1-1 2-3 6-4 5-3 6-3 6-1 1 2 3 3 3 0 1-1 1 0 2 2 1 5 3 4 4-3 0-5 1-6 4-7 5-3 7-2 6 1-1 2-1 3 5 1h8c3 1 9-5 9-8l4-6c3-4 5-4 10-4 4 0 7 0 7 2 2 4 13 1 13-4-1-4 2-9 5-10l6-6c1-3 2-4 4-4 1 1 3 0 3-1h4l4-2c3-3-1-6-6-6-6 0-6-4-1-9l3-4 2-5c4-7 10-12 23-18 3-1 6-3 7-5l4-1c1 1 2 0 2-1 1-2 2-2 3-2 2 1 3 1 2-1s0-3 8-2c7 1 9 1 9-1l-4-2c-4 0-5-1-1-4l1-4c0-1 1-3 3-3l7-4c4-3 4-3 4 4l2 2c1 1 1 2-1 3l-1 2 10 2 1 2c-1 1-1 1 1 1 1-1 2 0 2 1l-1 2-1 1-4 6c-4 4-5 4-7 3s-3-1-5 1l-2 6c0 3-1 4-4 4l-4-2c-1-2-3-2-4 1s3 7 6 6c2-1 4 1 6 5 3 6 2 10-3 13-2 1-2 2-2 4 1 2 1 2 3 0 1-1 3-3 5-3l3-1c0-2 6 0 7 2h2c1-2 12-2 13 0s-4 8-7 8-3 3 0 3c1 1 2 5 2 12a75 75 0 0 0 4 23l2 8c1 5 1 5-2 5-5 0-8 7-8 15-1 5-1 5-3 4-2-2-2-1-1 4l-1 6c-3 0-4 7-1 10l6 11c4 6 9 10 9 5l2-2c2 0 2 1 2 3-1 2 0 3 3 3l5 1 4 1c3 1 4 5 0 5-1 0-2 1-2 3 0 4 6 10 9 10 4 0 5 4 3 6l-2 7c0 4 1 6 4 8 3 3 3 3 1 8v6c3 0 9 13 9 19s-4 6-10 0l-10-7c-12-7-34-27-34-32 0-4-3-11-5-11v-1c3-3 2-18-1-20l-2-5-1-4v-2c1-2 1-4-1-9-2-6-2-7-1-10 2-3 1-5-6-11-3-3-4-6-4-8 0-5-2-5-5-1-3 3-3 5 1 9 1 2 3 5 3 8l1 9c0 4 0 4-2 4l-5-4c-2-3-5-4-5-1 0 2-1 3-2 3s-3 1-3 3l-2 3c-2 0-3 8-1 10l2 11 3 13c2 4 2 4 5 1l3-1-4 5-3 5c0 2-1 2-3 2h-4l-4 1c-2-1-3 0-3 1 0 2 0 3-1 2-4 0-6 1-7 5s-3 7-8 9c-2 1-3 3-3 5 0 1 0 2-2 1-1-1-3 0-7 3-8 8-10 12-9 17v6l-1 9-2 9-2 11-1 13-2 7-1 4-2 4c0 2 1 3 5 3l5-2 4 3c3 3 4 3 4 1 0-3 3-3 3 0l2 2 2-2 2-2c3 0 3-4 1-5-3-2 2-6 6-5l13 4c0 1 2 4 5 6 4 4 5 6 5 8-2 3 1 13 5 16l6 11c4 7 4 7 3 34-1 28-1 33-3 36v5c1 4-4 16-9 20-3 3-5 4-10 3l-6-1-1 6c-1 5-2 6-4 6-3 0-3 0-1-2zm71-72c-3-3-4-6-4-7v-2c-2 0-6-8-6-11l-5-5c-3-2-6-5-7-8l-7-11-7-11c-1-4-3-5-5-5-3 0-8-5-8-7l-3-3-2-4-2-5c-2-3-2-3-1-4 3-2 1-9-3-10l-2-3c2-3 4-2 5 2 1 2 3 4 5 4l3 3 2 3c5 2 7 4 5 5-2 3 2 7 8 10l4 3 1 1 11 8c5 5 11 9 14 10l5 3h-7c-8 0-9 2-6 11 3 10 8 17 11 17l5 2c1 1 4 2 5 1 3-1 7 7 4 8l-3 1c-1-1 0-2 1-2v-2c-3 0-8 6-6 8 3 6 0 5-5 0zm-7-5c0-2 0-3 1-2v3c-1 1-1 0-1-1zm41-7c0-4 1-6 2-6 2-1 2-1 2 4-2 8-4 10-4 2zm5-10c-2-2-1-14 1-15l3-3 1-3c2 0 2 2-1 8l-1 8c1 2-1 7-3 5zm8-29l1-5c2-2 2 3 0 7-1 2-1 2-1-2zm5-22v-2 2zm-146-8l1-1 1 1v2l-2-2zm140-19c-1-2 0-3 2-1 2 1 2 1 1 2s-2 0-3-1zm-2-10l1-1 2 1-2 2-1-2zm-2-8v-2c1-1 0-3-1-4v-4c3-3 5-3 4-1v9c-1 2-2 3-3 2zm-94-58l1-2 2 1-2 2-1-1zm-450-67l2-4 1 4-1 5c-1 0-2-2-2-5zm202-5l2-2h2c0 2-3 3-4 2zm-143-6c-2-1-2-2 0-2 2-2 3-1 2 2h-2zm-65-4c-3-4-4-6-2-7 2-3 0-10-3-10-1 0-2 0 0-2 0-2 2-3 4-3 1 1 4 0 7-3 4-4 6-4 10-1 3 2 2 2-4 8-5 5-6 6-7 14l-1 8-4-4zm-37-2c-1-1-1-3 2-4 3-2 4-2 4 0 2 4-3 7-6 4zm341-18c-2-5 2-7 8-5 3 2 3 3-2 5-4 2-6 2-6 0zm-285-7v-3c1 0 2-1 1-2l3-1 2-1 5-3 4-3 4-1 6-2h6l5 1 3 1 10 1c7-1 9-1 9 1v3c-1 1-15 3-17 2h-9l-12 2-5 2-4 1-6 3c-2 3-3 3-5-1zm279 2l2-1 1 1-1 1-2-1zm-564-2l-3-5-4-2-5-2h3c3 1 4 0 4-2 0-5 7-5 7 0l3 1c1 0 2 1 1 5 0 6-3 8-6 5zm551-2c-3-2-6-8-5-12 1-2 3-2 7 0 3 2 5 0 3-2-3-3-2-4 4-4 7 0 11 2 9 5-1 3-6 2-8-1h-1l4 4 3 2-4 2-5 3c-1-1-1 0-1 1 1 3-2 4-6 2zm-117-9l3-7 2-2 1 1 2 2c2 0 6 4 5 6l-5 3-7 2-4 1 3-6zm-12-6c-5-2-5-8-1-11 5-3 7-3 5 0 0 2 0 2 2 1 4-1 5 2 4 5l-1 5c1 3-3 3-9 0zm150-4c0-2 2-4 5-5l6-1c4-1 4-1 1 2-2 4-10 6-12 4zm-159-6c-1-2-1-3 2-3l2 3h-4zm3-6c-1-3 2-8 4-8l3-2c1-2 2-1 3 4 1 4 0 7-5 8-3 0-4 0-5-2zm258-7l2-1h2l-2 2-2-1zM387 53l1-3c1-1 5 1 4 3s-3 2-5 0zm8 0l3-1 3 1-3 2c-2 0-3-1-3-2zm-12-10h1c3 1 3 2 1 2l-2-2zm-17-6c-5-1-4-1 3-2l4 2c1 2-1 2-7 0zm-3-5l-1-2c0-2 6 0 7 2h-6zm358-6c-2-5-2-7 1-9 4-2 4-2 3 6 0 6-2 8-4 3z"/></svg>