<svg xmlns="http://www.w3.org/2000/svg" viewBox="0 0 376.58 329.22"><defs><style>.cls-1{fill:#fff;}</style></defs><title>Asset 4</title><g id="Layer_2" data-name="Layer 2"><g id="Logo"><g id="block"><path class="cls-1" d="M0,306.42a33.18,33.18,0,0,1,1.12-8.54,22.82,22.82,0,0,1,3.53-7.58,18.07,18.07,0,0,1,6.26-5.4,19.56,19.56,0,0,1,9.31-2.06,27.76,27.76,0,0,1,5,.45,18.65,18.65,0,0,1,5.36,2l1.48-2.44h3.28l.06,14.39-3.21.45-2.89-6.23a10.19,10.19,0,0,0-3.85-1.67,21.26,21.26,0,0,0-4-.38,9.75,9.75,0,0,0-5.14,1.28,9.9,9.9,0,0,0-3.44,3.53,17,17,0,0,0-1.93,5.24,31.81,31.81,0,0,0-.61,6.39,37.51,37.51,0,0,0,.48,6.17,14.21,14.21,0,0,0,1.83,5.11,9.51,9.51,0,0,0,3.79,3.5,13.48,13.48,0,0,0,6.29,1.28q2.06,0,5.24-.32a34.5,34.5,0,0,0,6.71-1.41l1.48,5.52a21.07,21.07,0,0,1-3.73,1.54,36,36,0,0,1-4.11,1q-2.06.39-4,.58t-3.5.19q-10.28,0-15.51-5.49T0,306.42Z"/><path class="cls-1" d="M68.87,314.32H54.54l-2.83,8.48L57.31,324l-.13,4H40.28L40,324.15l5.27-1.48,11.63-30.06q.83-2.06,1.57-4.18t1.38-4.3l7.45-1.48.45.19,15.74,39.89L87.18,324l-.39,4.11H67.2l-.32-3.92,4.88-1.54ZM58.59,302.11l-2.44,7.26h11l-2.44-7.45-3-8.74h-.26Z"/><path class="cls-1" d="M108,282.84q.83,0,2.09.1t2.63.32q1.38.23,2.89.61a22.36,22.36,0,0,1,2.92,1l1.22-2h2.76l.13,14.52-3.28.45L116.83,291a14.82,14.82,0,0,0-3.92-1.38,20.55,20.55,0,0,0-4.3-.48,8.25,8.25,0,0,0-4.37,1,3.56,3.56,0,0,0-1.67,3.28,3.15,3.15,0,0,0,.93,2.12,11.78,11.78,0,0,0,2.54,2,42.26,42.26,0,0,0,3.79,2.06l4.63,2.22a40.6,40.6,0,0,1,4.3,2.22,17.3,17.3,0,0,1,3.5,2.73,11.23,11.23,0,0,1,2.34,3.53,12.09,12.09,0,0,1,.83,4.69,14.92,14.92,0,0,1-.93,5.17,11.85,11.85,0,0,1-3,4.53,15.31,15.31,0,0,1-5.49,3.21,24.92,24.92,0,0,1-8.35,1.22q-1.16,0-2.67-.13t-3.05-.35q-1.54-.23-3.05-.58a14.94,14.94,0,0,1-2.67-.87l-1.35,1.86h-3l-.19-16.32,3.21-.45,2.57,7.52a10,10,0,0,0,2.31,1.29,22.22,22.22,0,0,0,2.63.87,20.27,20.27,0,0,0,2.63.51,18.75,18.75,0,0,0,2.31.16,12.53,12.53,0,0,0,3.76-.48,6.89,6.89,0,0,0,2.41-1.25,4.42,4.42,0,0,0,1.28-1.77,5.74,5.74,0,0,0,.39-2.09,5.55,5.55,0,0,0-2.73-4.66,41.17,41.17,0,0,0-7-3.76q-2.83-1.22-5.2-2.54a22.7,22.7,0,0,1-4.14-2.89,12.13,12.13,0,0,1-2.76-3.5,9.51,9.51,0,0,1-1-4.43,12.36,12.36,0,0,1,.9-4.62,10.8,10.8,0,0,1,2.79-4,14.11,14.11,0,0,1,4.88-2.79A21.47,21.47,0,0,1,108,282.84Z"/><path class="cls-1" d="M166.95,315.09l-1.67,12.33-.71.64q-2.31,0-4.37,0l-4.11-.06-4.27-.06q-2.22,0-4.85,0H143.1q-2.2,0-4.56,0l-4.68.06q-2.32,0-4.18.1l-.45-3.66,5.85-1.73v-33.4l-5.2-1.54.45-3.92q1.61.06,3.92.1L139,284q2.39,0,4.49,0h3.38q2.18,0,4.17,0l4-.06,4-.06,4.24-.1.71.39L164,296.4l-3.15.64-3.08-7.26h-2.67q-1.77,0-3.73,0t-3.76,0h-2.76v12.85l14.2-.51v6l-14.2-.51V322H148q2,0,4.21,0l4.21-.06,3.18,0,4.37-7.52Z"/><path class="cls-1" d="M204.63,303.85,200,316.57l-4.24,11.56-6.94,1.09-15.22-40-4.18-1.41.51-3.85,14-.13a23.77,23.77,0,0,0,.55,3.63q.42,1.83.93,3.44l4,12.33,4.88,15h.26l4.69-14.26,2.44-7.39-2.83-7.32-4.3-1.41.51-3.85,14.39-.13a26.79,26.79,0,0,0,.51,3.63,25.81,25.81,0,0,0,1,3.44l4.56,13.49,4.24,13.3H220l3.85-13.17,4-14.71L221,287.72l.26-3.79,17.28-.06.32,3.92A11.42,11.42,0,0,0,236,290a15.64,15.64,0,0,0-2.09,2.73,22.05,22.05,0,0,0-1.51,3q-.64,1.57-1.09,3l-9.57,29.42-7,1.09-4.95-12.85L205,303.85Z"/><path class="cls-1" d="M281.87,305.45a35.11,35.11,0,0,1-1.09,8.8,21.07,21.07,0,0,1-3.56,7.52,18.12,18.12,0,0,1-6.42,5.27,21.33,21.33,0,0,1-9.67,2q-10.54,0-15.55-5.88t-5-16.61a35.25,35.25,0,0,1,1.09-8.77,21.33,21.33,0,0,1,3.57-7.58,18.12,18.12,0,0,1,6.49-5.33,21.91,21.91,0,0,1,9.92-2,22.42,22.42,0,0,1,8.8,1.61,16.89,16.89,0,0,1,6.33,4.56,19.69,19.69,0,0,1,3.82,7.13A31.6,31.6,0,0,1,281.87,305.45Zm-20.62-16.51a8.66,8.66,0,0,0-5.33,1.54,10.27,10.27,0,0,0-3.18,4,18.84,18.84,0,0,0-1.54,5.36,40.74,40.74,0,0,0-.42,5.72,43.5,43.5,0,0,0,.51,7,17.54,17.54,0,0,0,1.7,5.4,8.68,8.68,0,0,0,3.21,3.47,9.61,9.61,0,0,0,5,1.22,8.69,8.69,0,0,0,5.17-1.45,10.57,10.57,0,0,0,3.24-3.79,17.53,17.53,0,0,0,1.7-5.27,36.06,36.06,0,0,0,.48-5.88,39.3,39.3,0,0,0-.51-6.39,19.07,19.07,0,0,0-1.73-5.52,10.73,10.73,0,0,0-3.24-3.89A8.44,8.44,0,0,0,261.25,288.94Z"/><path class="cls-1" d="M329.65,305.45a35.15,35.15,0,0,1-1.09,8.8,21.05,21.05,0,0,1-3.57,7.52,18.11,18.11,0,0,1-6.42,5.27,21.33,21.33,0,0,1-9.67,2q-10.54,0-15.54-5.88t-5-16.61a35.25,35.25,0,0,1,1.09-8.77A21.33,21.33,0,0,1,293,290.2a18.13,18.13,0,0,1,6.49-5.33,21.91,21.91,0,0,1,9.92-2,22.42,22.42,0,0,1,8.8,1.61,16.9,16.9,0,0,1,6.33,4.56,19.69,19.69,0,0,1,3.82,7.13A31.64,31.64,0,0,1,329.65,305.45ZM309,288.94a8.66,8.66,0,0,0-5.33,1.54,10.28,10.28,0,0,0-3.18,4A18.81,18.81,0,0,0,299,299.8a40.74,40.74,0,0,0-.42,5.72,43.62,43.62,0,0,0,.51,7,17.56,17.56,0,0,0,1.7,5.4,8.68,8.68,0,0,0,3.21,3.47,9.62,9.62,0,0,0,5,1.22,8.69,8.69,0,0,0,5.17-1.45,10.55,10.55,0,0,0,3.24-3.79,17.5,17.5,0,0,0,1.7-5.27,36.06,36.06,0,0,0,.48-5.88,39.19,39.19,0,0,0-.51-6.39,19,19,0,0,0-1.73-5.52,10.71,10.71,0,0,0-3.24-3.89A8.44,8.44,0,0,0,309,288.94Z"/><path class="cls-1" d="M345.68,327.87h-3q-1.35,0-2.67,0l-2.76.06-3.24.1-.39-3.66,5.72-1.73v-33.4l-5.14-1.54.45-3.92,2.86.1,2.25.06q1.06,0,2.09,0h2.31q1.8,0,3.24,0t2.63-.1l2.31-.1q1.12,0,2.28,0a25.26,25.26,0,0,1,10.47,1.93,18.35,18.35,0,0,1,6.78,5,19.19,19.19,0,0,1,3.63,7,29.33,29.33,0,0,1,1.09,7.9,33.57,33.57,0,0,1-.32,4.4,27.71,27.71,0,0,1-1.12,4.88,22,22,0,0,1-2.28,4.85,16.38,16.38,0,0,1-3.79,4.21,18.67,18.67,0,0,1-5.59,3,23.78,23.78,0,0,1-7.71,1.12l-1.83,0-3.08-.06-3.12-.06Zm3.4-6.1a15.44,15.44,0,0,0,2.46.35q1.38.1,2.53.1a11.56,11.56,0,0,0,5.86-1.38,10.7,10.7,0,0,0,3.84-3.73,16.83,16.83,0,0,0,2.08-5.4,30.73,30.73,0,0,0,.64-6.33,21.91,21.91,0,0,0-1.15-7.71,12.07,12.07,0,0,0-3.07-4.75,10.61,10.61,0,0,0-4.45-2.41,20.63,20.63,0,0,0-5.34-.67q-.9,0-1.79,0t-1.6.1Z"/><path class="cls-1" d="M219.3,232.65s-2-31.63-13-56.78c-13.66-31.23-30.49-82.62-6-129,6-11.36-2-13-12-.81-14.17,17.25-21,44.61-21,73s18,63.27,3,113.56Z"/><path class="cls-1" d="M220,111.38a49.89,49.89,0,0,0-14.27,41.39,6.2,6.2,0,0,0,5.4,5.4,50,50,0,0,0,55.66-55.66,6.2,6.2,0,0,0-5.4-5.4A49.89,49.89,0,0,0,220,111.38Z"/><path class="cls-1" d="M200.92,69.38a35.82,35.82,0,0,0-2.39,29.79,6.25,6.25,0,0,0,7.13,4,35.9,35.9,0,0,0,26.51-47.44,6.25,6.25,0,0,0-7.13-4A35.82,35.82,0,0,0,200.92,69.38Z"/><path class="cls-1" d="M128.44,97.95a35.82,35.82,0,0,0,19.37,22.76,6.25,6.25,0,0,0,7.86-2.23,35.9,35.9,0,0,0-14.81-52.29A6.25,6.25,0,0,0,133,68.41,35.82,35.82,0,0,0,128.44,97.95Z"/><path class="cls-1" d="M156.56,139.38a49.89,49.89,0,0,0-41.39-14.27,6.2,6.2,0,0,0-5.4,5.4,50,50,0,0,0,55.66,55.66,6.2,6.2,0,0,0,5.4-5.4A49.89,49.89,0,0,0,156.56,139.38Z"/><path class="cls-1" d="M110.31,91.05a26.44,26.44,0,0,0-20-3.61,6.27,6.27,0,0,0-4.8,7.46,26.51,26.51,0,0,0,31.55,20.29,6.27,6.27,0,0,0,4.8-7.46A26.44,26.44,0,0,0,110.31,91.05Z"/><path class="cls-1" d="M173.63,39.73a26.44,26.44,0,0,0-11.58-16.68,6.27,6.27,0,0,0-8.67,1.88,26.51,26.51,0,0,0,8,36.65A6.27,6.27,0,0,0,170,59.7,26.44,26.44,0,0,0,173.63,39.73Z"/><path class="cls-1" d="M226,24.92a26.44,26.44,0,0,0,3.61-20,6.27,6.27,0,0,0-7.46-4.8,26.51,26.51,0,0,0-20.29,31.55,6.27,6.27,0,0,0,7.46,4.8A26.44,26.44,0,0,0,226,24.92Z"/></g></g></g></svg>