<svg xmlns="http://www.w3.org/2000/svg" viewBox="0 0 181.81 232.65"><defs><style>.cls-1{fill:#7f5152;}</style></defs><title>Asset 3</title><g id="Layer_2" data-name="Layer 2"><g id="Logo"><path class="cls-1" d="M133.91,232.65s-2-31.63-13-56.78c-13.66-31.23-30.49-82.62-6-129,6-11.36-2-13-12-.81-14.17,17.25-21,44.61-21,73s18,63.27,3,113.56Z"/><path class="cls-1" d="M134.65,111.38a49.89,49.89,0,0,0-14.27,41.39,6.2,6.2,0,0,0,5.4,5.4,50,50,0,0,0,55.66-55.66,6.2,6.2,0,0,0-5.4-5.4A49.89,49.89,0,0,0,134.65,111.38Z"/><path class="cls-1" d="M115.53,69.38a35.82,35.82,0,0,0-2.39,29.79,6.25,6.25,0,0,0,7.13,4,35.9,35.9,0,0,0,26.51-47.44,6.25,6.25,0,0,0-7.13-4A35.82,35.82,0,0,0,115.53,69.38Z"/><path class="cls-1" d="M43.06,97.95A35.82,35.82,0,0,0,62.43,120.7a6.25,6.25,0,0,0,7.86-2.23A35.9,35.9,0,0,0,55.48,66.19a6.25,6.25,0,0,0-7.86,2.23A35.82,35.82,0,0,0,43.06,97.95Z"/><path class="cls-1" d="M71.17,139.38a49.89,49.89,0,0,0-41.39-14.27,6.2,6.2,0,0,0-5.4,5.4A50,50,0,0,0,80,186.18a6.2,6.2,0,0,0,5.4-5.4A49.89,49.89,0,0,0,71.17,139.38Z"/><path class="cls-1" d="M24.92,91.05a26.44,26.44,0,0,0-20-3.61,6.27,6.27,0,0,0-4.8,7.46,26.51,26.51,0,0,0,31.55,20.29,6.27,6.27,0,0,0,4.8-7.46A26.44,26.44,0,0,0,24.92,91.05Z"/><path class="cls-1" d="M88.25,39.73A26.44,26.44,0,0,0,76.67,23.05,6.27,6.27,0,0,0,68,24.93a26.51,26.51,0,0,0,8,36.65,6.27,6.27,0,0,0,8.67-1.88A26.44,26.44,0,0,0,88.25,39.73Z"/><path class="cls-1" d="M140.59,24.92a26.44,26.44,0,0,0,3.61-20,6.27,6.27,0,0,0-7.46-4.8,26.51,26.51,0,0,0-20.29,31.55,6.27,6.27,0,0,0,7.46,4.8A26.44,26.44,0,0,0,140.59,24.92Z"/></g></g></svg>