<?xml version="1.0" standalone="no"?>
<!DOCTYPE svg PUBLIC "-//W3C//DTD SVG 20010904//EN"
 "http://www.w3.org/TR/2001/REC-SVG-20010904/DTD/svg10.dtd">
<svg version="1.0" xmlns="http://www.w3.org/2000/svg"
 width="90.000000pt" height="90.000000pt" viewBox="0 0 90.000000 90.000000"
 preserveAspectRatio="xMidYMid meet">
<metadata>
Created by potrace 1.14, written by Peter Selinger 2001-2017
</metadata>
<g transform="translate(0.000000,90.000000) scale(0.100000,-0.100000)"
fill="#000000" stroke="none">
<path d="M382 880 c-37 -23 -62 -72 -62 -124 l0 -35 -96 -3 c-137 -4 -129 12
-155 -318 -23 -295 -21 -320 32 -364 l31 -26 313 0 313 0 30 25 c55 46 56 56
33 356 -26 338 -19 323 -150 327 l-91 3 0 35 c0 81 -57 144 -130 144 -19 0
-50 -9 -68 -20z m118 -48 c17 -14 23 -30 24 -63 l1 -44 -75 0 -75 0 1 44 c1
51 28 81 74 81 15 0 38 -8 50 -18z m-178 -204 c2 -35 7 -43 23 -43 16 0 21 8
23 43 l3 42 79 0 79 0 3 -42 c2 -35 7 -43 23 -43 16 0 21 8 23 43 l3 42 84 0
c46 0 86 -4 89 -9 3 -4 15 -126 26 -270 21 -273 20 -288 -19 -318 -12 -9 -94
-12 -308 -13 l-292 0 -28 24 -27 24 18 258 c10 143 20 269 23 282 5 21 10 22
89 22 l83 0 3 -42z"/>
</g>
</svg>
