<?xml version="1.0" encoding="UTF-8"?>
<svg viewBox="0 0 129 57" version="1.1" xmlns="http://www.w3.org/2000/svg">
    <g stroke="none" stroke-width="1" fill="none" fill-rule="evenodd">
        <g transform="translate(63.976363, 36.283582)" fill="#F08300">
            <path d="M3.20497054,9.42400948 C4.12085512,9.42400948 4.55277923,9.01136752 4.55277923,8.40495558 C4.55277923,7.76000983 4.06859543,7.37313047 3.19179395,7.37313047 L1.84443193,7.37313047 L1.84443193,9.42400948 L3.20497054,9.42400948 L3.20497054,9.42400948 Z M3.08727457,6.53485514 C3.84615675,6.53485514 4.22559783,6.14775558 4.22559783,5.54156383 C4.22559783,4.94814328 3.84615675,4.63855171 3.04819147,4.63855171 L1.84443193,4.63855171 L1.84443193,6.53485514 L3.08727457,6.53485514 L3.08727457,6.53485514 Z M0.575459447,3.77451378 L3.30948992,3.77451378 C4.64389869,3.77451378 5.52070016,4.35472274 5.52070016,5.45128464 C5.52070016,6.08323898 5.18034218,6.62491414 4.57890907,6.88298051 L4.57890907,6.89575171 C5.40300419,7.08930149 5.83470497,7.72125584 5.83470497,8.44370957 C5.83470497,9.65631326 4.84020753,10.3010388 3.40127938,10.3010388 L0.575459447,10.3010388 L0.575459447,3.77451378 L0.575459447,3.77451378 Z"/>
            <path d="M10.4920707,3.619718 C11.3686489,3.619718 12.3497464,3.91631817 12.977756,4.57403512 L12.3758762,5.45128464 C11.9309989,5.01265988 11.2377763,4.70306831 10.5443304,4.70306831 C9.20992165,4.70306831 8.24200072,5.69635961 8.24200072,7.0247849 C8.24200072,8.35343038 9.20992165,9.37226409 10.5836369,9.37226409 C11.3163892,9.37226409 12.1141311,9.02413872 12.6244448,8.49523477 L13.1349817,9.41101809 C12.5328786,10.0429724 11.5258746,10.4558346 10.4920707,10.4558346 C8.39922645,10.4558346 6.94667505,8.99837612 6.94667505,7.03777629 C6.94667505,5.10293907 8.41217971,3.619718 10.4920707,3.619718"/>
            <path d="M17.2168209,4.58702651 C16.2357234,4.58702651 15.2067691,5.63284741 15.0236369,6.71641791 L18.825928,6.71641791 C18.7866216,5.59409342 18.0799991,4.58702651 17.2168209,4.58702651 Z M17.2429508,3.619718 C19.113803,3.619718 20.1078538,4.99966848 20.1078538,6.67643933 C20.1078538,6.84422651 20.0294643,7.53563933 20.0033344,7.71641791 L15.0236369,7.71641791 C15.0890731,9.12213099 16.3270662,9.37226409 17.5178725,9.37226409 C18.2240483,9.37226409 18.943624,9.07566392 19.4671143,8.61127656 L20.0033344,9.52728007 C19.3623715,10.107489 18.3549208,10.4558346 17.4392596,10.4558346 C15.3591452,10.4558346 13.9199938,8.97261352 13.9199938,7.03777629 C13.9199938,4.96091449 15.3591452,3.619718 17.2429508,3.619718 L17.2429508,3.619718 Z"/>
            <polygon points="31.0236369 3.77451378 31.0236369 10.3010388 30.0236369 10.3010388 30.0236369 4.84509289 26.1784645 4.84509289 26.1784645 10.3010388 24.909492 10.3010388 24.909492 3.77451378"/>
            <path d="M35.7551645,9.37226409 C36.8019216,9.37226409 37.6650998,8.53398876 37.6650998,7.05076769 C37.6650998,5.63184302 36.8934877,4.7160597 35.7944709,4.7160597 C34.8001968,4.7160597 33.8843122,5.41253064 33.8843122,7.06353889 C33.8843122,8.22461738 34.5384517,9.37226409 35.7551645,9.37226409 L35.7551645,9.37226409 Z M33.8318292,3.77451378 L33.8318292,4.35472274 C33.8318292,4.62578051 33.7927461,4.84509289 33.7927461,4.84509289 L33.8188759,4.84509289 C34.2376235,4.05834276 35.0751185,3.619718 36.0430394,3.619718 C37.8352788,3.619718 38.9472489,5.01265988 38.9472489,7.03777629 C38.9472489,9.11441791 37.691453,10.4558346 35.9514733,10.4558346 C35.1144249,10.4558346 34.3553194,10.0429724 33.8972655,9.34650149 L33.8711356,9.34650149 C33.8711356,9.34650149 33.9236186,9.57880527 33.9236186,9.91393924 L33.9236186,12.8808218 L33.0236369,12.8808218 L33.0236369,3.77451378 L33.8318292,3.77451378 Z"/>
            <path d="M43.657321,9.37226409 C44.900387,9.37226409 45.9337442,8.39196418 45.9337442,7.0247849 C45.9337442,5.67059701 44.900387,4.70306831 43.657321,4.70306831 C42.4015251,4.70306831 41.3811212,5.67059701 41.3811212,7.0247849 C41.3811212,8.39196418 42.4015251,9.37226409 43.657321,9.37226409 L43.657321,9.37226409 Z M43.6441444,3.619718 C45.6197394,3.619718 47.2156699,5.05119368 47.2156699,7.0247849 C47.2156699,9.01136752 45.6197394,10.4558346 43.657321,10.4558346 C41.681726,10.4558346 40.0855722,9.01136752 40.0855722,7.0247849 C40.0855722,5.05119368 41.681726,3.619718 43.6441444,3.619718 L43.6441444,3.619718 Z"/>
            <polygon points="50.0236369 3.77451378 50.0236369 9.71641791 52.1477341 9.71641791 52.1477341 3.77451378 53.3778468 3.77451378 53.3778468 9.71641791 55.8240023 9.71641791 55.8240023 3.77451378 57.0409384 3.77451378 57.0409384 9.71641791 57.9827295 9.71641791 57.9827295 11.7164179 57.0409384 11.7164179 57.0409384 10.7164179 49.0236369 10.7164179 49.0236369 3.77451378"/>
            <path d="M64.0236369,6.71641791 C63.990377,5.4079851 62.3924557,4.71641791 62.0236369,4.71641791 C60.8318888,4.71641791 60.1785975,5.45316544 60.0236369,6.71641791 L63.0236369,6.71641791 L64.0236369,6.71641791 Z M62.0236369,3.71641791 C64.0597649,3.71641791 65.0236369,5.12945019 65.0236369,6.71641791 C65.0236369,7.01822813 64.9983003,7.20311507 65.0236369,7.71641791 L60.0236369,7.71641791 C60.3682068,8.82763997 61.3574153,9.60687079 62.0236369,9.71641791 C63.1970226,9.60687079 63.8947525,9.30316016 64.0236369,8.71641791 L65.0236369,9.71641791 C64.300787,10.3597214 63.323922,10.7164179 62.0236369,10.7164179 C60.4188799,10.7164179 59.0236369,9.19763932 59.0236369,7.71641791 C59.0236369,5.08976713 60.4188799,3.71641791 62.0236369,3.71641791 L62.0236369,3.71641791 Z"/>
            <polygon points="18.0236369 2.11641789 19.0236369 2.11641789 19.0236369 0.71641791 18.0236369 0.71641791"/>
            <polygon points="16.0236369 2.11641789 17.0236369 2.11641789 17.0236369 0.71641791 16.0236369 0.71641791"/>
        </g>
        <g transform="translate(60.549020, 7.656716)" fill="#FFF">
            <path d="M18.5247437,27.4676144 C18.3413881,27.6184467 18.1269894,27.5878399 17.9746769,27.4070613 L16.5071623,25.4786097 C15.1627036,23.7001096 13.4506404,22.585712 10.2715092,22.585712 C4.28040468,22.585712 0.520833604,18.3362044 0.520833604,11.5857429 C0.520833604,4.80467463 4.28040468,0.555387182 10.2715092,0.555387182 C16.2628371,0.555387182 19.9922583,4.80467463 19.9922583,11.5857429 C19.9922583,15.0211965 18.7695155,18.5167628 16.7211143,19.7223203 C16.3544032,19.9337057 16.3544032,20.0239849 16.7211143,20.1446507 C18.4941472,20.7772657 19.3191356,21.5307666 20.2669567,22.7363241 L21.6424585,24.5742764 C21.7952176,24.755055 21.7648445,24.9657798 21.5808189,25.1170525 L18.5247437,27.4676144 L18.5247437,27.4676144 Z M10.2715092,18.245705 C13.2366883,18.245705 15.0092745,15.7143645 15.0092745,11.5857429 C15.0092745,7.36618156 13.2366883,4.92512028 10.2715092,4.92512028 C7.3677464,4.92512028 5.5035941,7.36618156 5.5035941,11.5857429 C5.5035941,15.7143645 7.3677464,18.245705 10.2715092,18.245705 L10.2715092,18.245705 Z"/>
            <path d="M28.3375056,21.8621573 C28.3375056,22.1037092 28.1847465,22.2541011 27.9404212,22.2541011 L23.7830959,22.2541011 C23.5387706,22.2541011 23.3857882,22.1037092 23.3857882,21.8621573 L23.3857882,1.27850149 C23.3857882,1.03761018 23.5387706,0.886337489 23.7830959,0.886337489 L27.9404212,0.886337489 C28.1847465,0.886337489 28.3375056,1.03761018 28.3375056,1.27850149 L28.3375056,21.8621573"/>
            <path d="M56.6423813,15.7744773 C56.0923146,17.8539814 55.6335906,19.8432063 55.2365063,21.8923238 C55.2054631,22.1334353 55.0524807,22.2536608 54.8083788,22.2536608 L49.2145819,22.2536608 C48.9702567,22.2536608 48.8172743,22.1334353 48.7869011,21.8923238 C48.4505631,20.1446507 48.1144485,18.5471494 47.6860977,16.8893152 L46.7389466,12.9718588 C46.555591,12.1886318 46.3105958,10.9225212 46.1272402,9.86735558 C46.0662706,9.44568569 45.6997828,9.44568569 45.6381431,9.86735558 C45.4547875,10.9225212 45.2104623,12.1580249 45.0271067,12.9718588 L44.0792857,16.8893152 C43.6822014,18.5471494 43.3458634,20.1446507 42.9787055,21.8923238 C42.948779,22.1334353 42.79535,22.2536608 42.5514714,22.2536608 L36.9578979,22.2536608 C36.7129026,22.2536608 36.5601435,22.1334353 36.5295471,21.8923238 C36.1317927,19.8432063 35.6737388,17.8539814 35.123672,15.7744773 L31.3638776,1.30888815 C31.2720882,1.06777665 31.4248473,0.886777875 31.7002156,0.886777875 L35.918064,0.886777875 C36.1628359,0.886777875 36.3158183,1.00744372 36.376788,1.21816857 L38.4551157,9.35496611 C38.9748092,11.4047442 39.4029367,14.0263638 39.5862923,15.9854223 C39.6166654,16.3769257 40.0753894,16.4075326 40.136359,15.9854223 C40.4110574,14.0565303 40.9008245,11.4047442 41.4812644,9.35496611 L43.7125745,1.21816857 C43.7735442,1.00744372 43.9265266,0.886777875 44.1402553,0.886777875 L47.625128,0.886777875 C47.8390801,0.886777875 47.9918392,1.00744372 48.0528088,1.21816857 L50.3151621,9.35496611 C50.8958253,11.4047442 51.3849224,14.0565303 51.6600675,15.9854223 C51.6906639,16.4075326 52.1493879,16.3769257 52.1797611,15.9854223 C52.3325201,14.0263638 52.7907974,11.4047442 53.3102677,9.35496611 L55.3894887,1.21816857 C55.450235,1.00744372 55.6025475,0.886777875 55.8475427,0.886777875 L60.0658377,0.886777875 C60.3412061,0.886777875 60.4939652,1.06777665 60.4019524,1.30888815 L56.6423813,15.7744773"/>
            <path d="M68.3811585,21.8621573 C68.3811585,22.1037092 68.2283994,22.2541011 67.9840741,22.2541011 L63.8267488,22.2541011 C63.5824235,22.2541011 63.4294411,22.1037092 63.4294411,21.8621573 L63.4294411,1.27850149 C63.4294411,1.03761018 63.5824235,0.886337489 63.8267488,0.886337489 L67.9840741,0.886337489 C68.2283994,0.886337489 68.3811585,1.03761018 68.3811585,1.27850149 L68.3811585,21.8621573"/>
        </g>
        <path d="M38.0673879,39.4938437 C37.5597543,39.4938437 37.1365401,39.6684569 36.8759116,39.9850946 C36.2090423,40.7958458 36.5089772,42.2229176 37.5302744,43.1028095 C37.9760451,43.4866061 38.618348,43.7162676 39.2488143,43.7162676 C39.8906705,43.7162676 40.4259973,43.4786792 40.7563053,43.0482016 C41.3505918,42.2629928 41.0086705,41.1499164 39.8857572,40.2136551 C39.3296605,39.7497082 38.6840076,39.4938437 38.0673879,39.4938437 M43.6656514,35.4202704 C43.1689611,35.2771449 42.7975599,35.3837183 42.614651,35.7140081 C42.3370493,36.2136263 42.5420681,37.2018532 43.1019614,38.0630286 C43.6687781,38.9356541 44.1500586,39.3780221 44.5328496,39.3780221 C44.6650622,39.3780221 44.7832048,39.323194 44.8749943,39.2203638 C45.0878297,38.9792523 45.1584026,38.4741292 45.0688465,37.8353489 C44.9786203,37.1824762 44.5723794,35.8395182 43.6656514,35.4202704 M54.7563191,55.2094694 C55.2697594,55.8365795 54.4887674,56.4731579 53.9069875,55.9645117 C48.0947719,50.8888393 43.2067042,49.4511982 38.3720128,49.2519234 C35.8063746,49.1462307 33.2556998,49.3888836 30.5895622,49.6209672 C30.057362,49.6672077 29.5200252,49.7132281 28.9768818,49.7557254 C28.7399265,49.774662 28.5011846,49.7922774 28.2624427,49.8096727 C27.3219916,49.9094202 26.3697039,49.9627069 25.4035696,49.9627069 C20.8545198,49.9627069 16.5618553,48.8635027 12.6437185,46.6948204 C8.71151175,44.5199726 5.58598026,41.4821879 3.35534013,37.6653598 C1.12849665,33.8571192 0,29.6490079 0,25.1577282 C0,20.6708523 1.12737999,16.4449054 3.35087349,12.5972502 C5.57905696,8.74387006 8.66840867,5.67591888 12.5336158,3.47949219 C16.3990462,1.28460685 20.6153313,0.171530465 25.0663382,0.171530465 C29.7145474,0.171530465 34.0594717,1.27117507 37.9798418,3.43985742 C41.9111552,5.61492537 45.0456199,8.66195821 47.2976999,12.4972825 C49.5453133,16.328203 50.6845299,20.547324 50.6845299,25.0377229 C50.6845299,26.7710834 50.5141276,28.4639284 50.1795762,30.1100924 C50.1364731,30.3490019 50.0743868,30.6385559 49.9866173,30.9758918 C49.9211811,31.2460688 49.8515015,31.5151449 49.7769086,31.7826795 L49.7561387,31.7710093 C49.3054547,33.1923561 48.467513,35.2042609 46.9070922,37.7873468 C46.7391466,38.0590651 46.6460171,37.8520836 46.6241306,37.7001503 C46.0783072,33.9009377 44.3896938,31.0157468 41.4131248,29.1524723 C41.3639917,29.1218655 41.3139654,29.0923596 41.2643857,29.0628537 C40.7766286,28.7669141 40.2558183,28.4978381 39.6999449,28.2558458 C38.9904191,27.9477956 38.225507,27.6822427 37.4023052,27.4629303 C36.8975749,27.329273 35.7724282,27.3867435 36.1806791,26.9877535 C36.3490714,26.8232692 38.7862937,26.7856162 41.5873237,26.9606697 C41.6418168,26.9639726 41.6963098,26.9672755 41.7514728,26.9707986 C41.8030625,26.3919108 41.8298623,25.7980499 41.8298623,25.1889956 C41.8298623,20.4484572 40.2383984,16.5834068 36.9641278,13.3734311 C33.6871772,10.1614736 29.8556932,8.59942335 25.2503638,8.59942335 C20.5347084,8.59942335 16.7108177,10.1630149 13.5607197,13.3800369 C10.3938718,16.6129127 8.85466757,20.4458149 8.85466757,25.0971751 C8.85466757,29.7388467 10.4376449,33.5552344 13.6931556,36.7647698 C16.9493363,39.9747456 20.7296773,41.5354746 25.2503638,41.5354746 C25.4672192,41.5354746 25.6813946,41.5288688 25.89557,41.522263 C25.8906567,41.4683157 25.88686,41.4145886 25.8826167,41.3613018 C25.6226583,38.0887912 25.5674953,35.3698462 26.2497746,36.4668485 C26.4905265,36.8546086 26.7303851,37.22101 26.9695736,37.5735392 C27.8608917,38.8874318 28.7430531,39.9690205 29.6214179,40.8656471 C29.6656377,40.9105665 29.7096341,40.9541647 29.7543005,40.9982033 C32.9680481,44.2145647 36.1315461,45.0059389 39.4944795,45.8195526 C39.5663924,45.8373882 39.6378586,45.8547835 39.7091015,45.8717384 C40.2600616,46.0056158 40.815935,46.1408144 41.3787317,46.2892246 C45.375928,47.3408671 49.7043257,49.0365745 54.7563191,55.2094694" fill="#FF8C00"/>
    </g>
</svg>