<?xml version="1.0" standalone="no"?>
<!DOCTYPE svg PUBLIC "-//W3C//DTD SVG 20010904//EN"
 "http://www.w3.org/TR/2001/REC-SVG-20010904/DTD/svg10.dtd">
<svg version="1.0" xmlns="http://www.w3.org/2000/svg"
 width="195.000000pt" height="131.000000pt" viewBox="0 0 195.000000 131.000000"
 preserveAspectRatio="xMidYMid meet">
<g transform="translate(0.000000,131.000000) scale(0.100000,-0.100000)"
fill="#ebebeb" stroke="none">
<path d="M1132 1274 c-21 -14 -22 -22 -22 -150 l0 -134 -115 0 -115 0 2 -332
3 -333 95 -1 c52 -1 103 -2 113 -3 15 -1 17 -14 17 -129 0 -144 7 -162 68
-162 32 0 116 67 630 498 169 142 187 105 -223 447 -185 154 -348 288 -363
297 -33 22 -61 23 -90 2z"/>
<path d="M40 970 c-19 -19 -20 -33 -20 -313 0 -267 2 -295 18 -309 20 -18 87
-30 120 -22 l22 6 0 329 0 329 -60 0 c-47 0 -64 -4 -80 -20z"/>
<path d="M290 657 l0 -332 78 1 c42 0 85 1 95 2 16 2 17 25 17 332 l0 330 -95
0 -95 0 0 -333z"/>
<path d="M582 658 l3 -332 75 -2 c122 -4 110 -41 110 337 l0 329 -95 0 -95 0
2 -332z"/>
</g>
</svg>
